# xmcd
#
# Track frame offsets: 
#        150
#        10493
#        35520
#        64961
#        100619
#        130721
#        158955
#        185004
#        200468
#        227145
#        253248
#        280636
#        309218
#
# Disc length: 4508 seconds
#
# Revision: 0
# Processed by: cddbd v1.5.2PL0 Copyright (c) Steve Scherf et al.
# Submitted via: ExactAudioCopy v0.99pb5
#
DISCID=b0119a0d
DTITLE=Various Artist - Deejay Alarm - Vol. 1
DYEAR=2000
DGENRE=
TTITLE0=Deejay Alarm - Mission Control Intro
TTITLE1=Deejay Alarm - Yeppa-Yeppa-Yepp-Yo! (Geschmeidiger Mix)
TTITLE2=Bad Habit Boys - Weekend (Woody van Eyden Radical Mix)
TTITLE3=Mission Control - Standby (DJ Electric Max Remix)
TTITLE4=Caba Kroll - Give Me You're Love (Special Mix)
TTITLE5=DJ Voodoo - Touch Me (Ramone Remix)
TTITLE6=Club Groovers - Bass, Rhym, Rhytm (Spacekids Hard Attack Mix)
TTITLE7=Kaylab and Serano - Daywalker (Radio Edit)
TTITLE8=Mad-C-Project - Tell Me Why (Instrumental Mix)
TTITLE9=Pornstars - Shine Baby Shine (Club Mix)
TTITLE10=Southside - Just Begun (Club Mix)
TTITLE11=Lemon - Cicilila (Club Mix)
TTITLE12=Code 5 - Burning (Club Mix)
EXTD=
EXTT0=
EXTT1=
EXTT2=
EXTT3=
EXTT4=
EXTT5=
EXTT6=
EXTT7=
EXTT8=
EXTT9=
EXTT10=
EXTT11=
EXTT12=
PLAYORDER=
